<svg width="16" height="16" viewBox="0 0 16 16" fill="none" xmlns="http://www.w3.org/2000/svg">
<path d="M14.0058 8.5265C13.9009 9.6613 13.475 10.7428 12.778 11.6444C12.0809 12.5459 11.1415 13.2304 10.0696 13.6175C8.99774 14.0047 7.83778 14.0786 6.72546 13.8306C5.61314 13.5825 4.59446 13.0229 3.78861 12.217C2.98276 11.4112 2.42309 10.3925 2.17507 9.28016C1.92704 8.16784 2.00094 7.00789 2.3881 5.93603C2.77526 4.86417 3.45968 3.92474 4.36127 3.22767C5.26286 2.53059 6.34432 2.1047 7.47913 1.99983C6.81473 2.89868 6.49503 4.00613 6.57815 5.12077C6.66127 6.23542 7.1417 7.2832 7.93206 8.07356C8.72242 8.86392 9.77021 9.34435 10.8848 9.42748C11.9995 9.5106 13.1069 9.19089 14.0058 8.5265Z" stroke="#FCFCFC" stroke-width="1.2" stroke-linecap="round" stroke-linejoin="round"/>
</svg>
